<?xml version="1.0" encoding="UTF-8"?>
<svg width="32px" height="24px" viewBox="0 0 32 24" version="1.1" xmlns="http://www.w3.org/2000/svg" xmlns:xlink="http://www.w3.org/1999/xlink">
    <!-- Generator: Sketch 48.2 (47327) - http://www.bohemiancoding.com/sketch -->
    <title>code copy 2</title>
    <desc>Created with Sketch.</desc>
    <defs></defs>
    <g id="Mobile-Copy" stroke="none" stroke-width="1" fill="none" fill-rule="evenodd" transform="translate(-267.000000, -148.000000)">
        <g id="code-copy-2" transform="translate(267.000000, 148.000000)" fill="#FFFFFF" fill-rule="nonzero">
            <path d="M19.575923,0.323724031 L18.4575222,0.0265544791 C18.313569,-0.019973922 18.1717634,-0.00534196428 18.033874,0.0703279091 C17.8955425,0.146059004 17.8021214,0.259747479 17.7541159,0.411209669 L11.0274145,22.9767496 C10.979409,23.128273 10.9944423,23.2711641 11.0725775,23.4049945 C11.1507127,23.5390698 11.2677576,23.6293716 11.4242806,23.6759 L12.5423656,23.973192 C12.6866346,24.0200877 12.8279349,24.0053946 12.9662033,23.9296022 C13.1045348,23.8535038 13.1977664,23.7401827 13.2457087,23.5889654 L19.9725997,1.02305814 C20.020542,0.871595954 20.005635,0.728704785 19.9273735,0.594568302 C19.8491751,0.460493041 19.7322566,0.37019121 19.575923,0.323724031 Z" id="Shape"></path>
            <path d="M10,4.41402159 C10,4.26641444 9.94264806,4.13569202 9.82812472,4.02221232 L8.96892885,3.17045821 C8.85440551,3.05691884 8.72261039,3 8.57372402,3 C8.42483766,3 8.29298236,3.05697851 8.1785192,3.17045821 L0.171875282,11.1083101 C0.0571713999,11.2218494 0,11.3525122 0,11.5001193 C0,11.6477265 0.0573519411,11.7783892 0.171875282,11.8918689 L8.17845902,19.8297208 C8.29292218,19.9434391 8.42453676,20 8.57366384,20 C8.72279093,20 8.85440551,19.9432601 8.96886867,19.8297208 L9.82806454,18.978444 C9.94258788,18.8649643 9.99993982,18.7342419 9.99993982,18.5864557 C9.99993982,18.4390276 9.94258788,18.3083648 9.82806454,18.1948851 L3.07564077,11.5001193 L9.82812472,4.80583086 C9.9428286,4.69235116 10,4.56162874 10,4.41402159 Z" id="Shape"></path>
            <path d="M31.8282337,11.1082247 L23.8208792,3.17045642 C23.7064084,3.05697791 23.5745444,3 23.4258889,3 C23.276752,3 23.1453694,3.05697791 23.0304774,3.17045642 L22.1715857,4.02214189 C22.057115,4.13568007 22,4.26616246 22,4.41394704 C22,4.56173162 22.0570548,4.69227368 22.1715857,4.80575219 L28.9246371,11.5001492 L22.1715857,18.1949041 C22.057115,18.3083826 22,18.4391037 22,18.5864706 C22,18.7343148 22.0570548,18.8649762 22.1715857,18.9784547 L23.0304774,19.8297226 C23.1453694,19.9434397 23.2768122,20 23.4258889,20 C23.5746046,20 23.7064084,19.9432607 23.8208792,19.8297226 L31.8282337,11.892014 C31.9427646,11.7785355 32,11.6476354 32,11.5000298 C32,11.3523646 31.9427646,11.2217032 31.8282337,11.1082247 Z" id="Shape"></path>
        </g>
    </g>
</svg>