<?xml version="1.0" encoding="UTF-8"?>
<svg width="26px" height="23px" viewBox="0 0 26 23" version="1.1" xmlns="http://www.w3.org/2000/svg" xmlns:xlink="http://www.w3.org/1999/xlink">
    <!-- Generator: Sketch 48.2 (47327) - http://www.bohemiancoding.com/sketch -->
    <title>Shape</title>
    <desc>Created with Sketch.</desc>
    <defs></defs>
    <g id="Mobile-Copy" stroke="none" stroke-width="1" fill="none" fill-rule="evenodd" transform="translate(-270.000000, -72.000000)">
        <g id="Group-2-Copy" transform="translate(263.000000, 72.000000)" fill="#FFFFFF" fill-rule="nonzero">
            <g id="artistic-brush" transform="translate(7.000000, 0.000000)">
                <path d="M10.2713886,12.3349341 C9.77675538,12.8773261 9.65545568,13.266667 9.0071762,14.2870084 C9.42633404,14.5783427 10.2309553,15.2509625 10.7889339,16.4095871 C11.9035434,15.7718737 12.4237843,15.6752098 13.0141094,15.1798071 C16.8714397,11.9442508 26.3166426,0.345922255 25.991829,0.0102836247 C25.6508421,-0.345493323 13.66778,8.62411343 10.2713886,12.3349341 Z M7.89391456,15.1878625 C6.218631,14.8925005 4.56491184,15.9477483 3.46108462,18.5845254 C2.35590962,21.2213025 0.382767925,22.2765503 0,22.2121077 C2.05939926,22.9545404 8.34002788,24.8529125 9.90075062,17.6259415 C9.23764562,15.8927036 7.89391456,15.1878625 7.89391456,15.1878625 Z" id="Shape"></path>
            </g>
        </g>
    </g>
</svg>