<?xml version="1.0" encoding="iso-8859-1"?>
<!-- Generator: Adobe Illustrator 16.0.0, SVG Export Plug-In . SVG Version: 6.00 Build 0)  -->
<!DOCTYPE svg PUBLIC "-//W3C//DTD SVG 1.1//EN" "http://www.w3.org/Graphics/SVG/1.1/DTD/svg11.dtd">
<svg xmlns="http://www.w3.org/2000/svg" xmlns:xlink="http://www.w3.org/1999/xlink" version="1.1" id="Capa_1" x="0px" y="0px" width="512px" height="512px" viewBox="0 0 219.701 219.701" style="enable-background:new 0 0 219.701 219.701;" xml:space="preserve">
<g>
	<g>
		<path d="M161.012,135.063c4.154,0,8.062-1.615,11.002-4.556c2.939-2.939,4.559-6.848,4.559-11.005    c0-4.155-1.619-8.062-4.559-11.003c-2.939-2.939-6.848-4.558-11.002-4.558c-4.158,0-8.062,1.619-11.003,4.555    c-2.939,2.936-4.562,6.848-4.562,11.002c0,4.158,1.622,8.066,4.562,11.006C152.952,133.444,156.856,135.063,161.012,135.063z     M154.968,113.456c1.615-1.615,3.761-2.506,6.047-2.506c2.282,0,4.432,0.891,6.047,2.506s2.505,3.764,2.505,6.047    c0,2.285-0.89,4.435-2.505,6.05c-3.23,3.228-8.856,3.23-12.091,0c-1.618-1.615-2.508-3.765-2.508-6.05    C152.463,117.22,153.35,115.071,154.968,113.456z" fill="#FFFFFF"/>
		<path d="M139.051,174.072c4.162,0,8.07-1.618,11.003-4.555c2.939-2.937,4.562-6.848,4.562-11.003    c0-4.161-1.622-8.069-4.559-11.002c-2.936-2.939-6.844-4.559-11.006-4.559c-4.154,0-8.062,1.619-11.002,4.559    c-2.939,2.937-4.559,6.845-4.559,11.006c0,4.154,1.619,8.062,4.559,10.999S134.896,174.072,139.051,174.072z M133.004,152.468    c1.615-1.615,3.765-2.505,6.047-2.505c2.286,0,4.433,0.89,6.048,2.505c1.618,1.615,2.508,3.762,2.508,6.047    c0,2.279-0.89,4.429-2.512,6.048c-3.224,3.227-8.856,3.227-12.087,0c-1.615-1.616-2.505-3.765-2.505-6.044    C130.499,156.229,131.389,154.083,133.004,152.468z" fill="#FFFFFF"/>
		<path d="M89.153,169.36c-2.941,2.936-4.56,6.844-4.56,11.002s1.619,8.062,4.56,11.002c2.939,2.939,6.848,4.559,11.002,4.559    c4.156,0,8.064-1.619,11.007-4.559c6.062-6.067,6.062-15.94,0-22.004c-2.939-2.94-6.848-4.559-11.007-4.559    C96,164.802,92.092,166.424,89.153,169.36z M106.204,186.409c-3.23,3.23-8.865,3.23-12.096,0    c-1.615-1.615-2.506-3.765-2.506-6.047c0-2.283,0.891-4.432,2.506-6.047s3.763-2.505,6.047-2.505c2.286,0,4.433,0.89,6.052,2.505    C109.537,177.651,109.537,183.076,106.204,186.409z" fill="#FFFFFF"/>
		<path d="M61.546,143.242c-4.16,0-8.064,1.618-11.004,4.555c-2.939,2.937-4.563,6.848-4.563,11.006    c0,4.154,1.624,8.062,4.563,10.999c2.94,2.939,6.845,4.558,11.004,4.558c4.156,0,8.059-1.618,11.002-4.558    c6.062-6.068,6.062-15.938,0-22.005C69.605,144.86,65.697,143.242,61.546,143.242z M67.59,164.846    c-3.23,3.234-8.862,3.234-12.092,0c-1.619-1.615-2.51-3.761-2.51-6.043c0-2.286,0.892-4.432,2.51-6.051    c1.615-1.615,3.763-2.505,6.049-2.505c2.284,0,4.432,0.89,6.047,2.505C70.923,156.089,70.923,161.513,67.59,164.846z" fill="#FFFFFF"/>
		<path d="M49.824,108.024c-2.943-2.936-6.851-4.555-11.007-4.555s-8.063,1.619-10.999,4.555c-2.941,2.939-4.563,6.848-4.563,11.002    c0,4.158,1.622,8.063,4.563,10.999c2.936,2.943,6.843,4.565,10.999,4.565c4.159,0,8.067-1.619,11.007-4.559    C55.886,123.962,55.886,114.089,49.824,108.024z M44.868,125.073c-3.234,3.228-8.858,3.234-12.092,0    c-1.621-1.618-2.51-3.764-2.51-6.047c0-2.278,0.89-4.428,2.51-6.047c1.615-1.615,3.759-2.501,6.043-2.501    c2.286,0,4.437,0.89,6.052,2.501C48.198,116.313,48.198,121.74,44.868,125.073z" fill="#FFFFFF"/>
		<path d="M77.283,52.753c-3.866-3.867-8.929-6.084-13.894-6.084c-3.953,0-7.563,1.43-10.162,4.031    c-6.062,6.067-5.142,16.861,2.057,24.058c3.869,3.867,8.932,6.088,13.897,6.088c3.949,0,7.556-1.434,10.155-4.035    c3.042-3.042,4.44-7.296,3.936-11.978C82.8,60.429,80.673,56.138,77.283,52.753z M74.381,71.855    c-1.636,1.636-3.731,1.981-5.2,1.981c-3.123,0-6.377-1.468-8.942-4.034c-4.464-4.47-5.386-10.814-2.057-14.147    c1.639-1.636,3.735-1.978,5.207-1.978c3.119,0,6.374,1.468,8.938,4.031c2.264,2.266,3.677,5.058,3.979,7.875    C76.58,68.112,75.892,70.343,74.381,71.855z" fill="#FFFFFF"/>
		<path d="M218.675,9.997c-0.849-0.846-2.091-1.205-3.244-0.935l-15.694,3.521c-1.044,0.26-6.389,1.68-8.993,4.319    c-4.079,4.13-5.216,10.075-3.542,15.28c-0.996-0.209-2.057-0.038-2.902,0.64L159.417,52.75c-0.777,0.626-1.253,1.55-1.308,2.546    c-0.004,0.072,0.034,0.144,0.034,0.216c-0.041,0-0.072-0.021-0.116-0.021c-0.951,0.021-1.858,0.431-2.509,1.132l-15.16,16.478    c-5.26,2.091-9.955,5.126-13.928,9.1c-2.769,2.769-6.451,4.291-10.366,4.291c-3.913,0-7.597-1.522-10.365-4.291    c-2.971-2.971-4.524-7.084-4.264-11.276c0.017-0.298-0.003-0.588-0.067-0.876v-0.003c0.036-0.51,0.063-1.013,0.063-1.52    c0.007-0.12,0.007-0.232,0.003-0.356c-0.007-0.099-0.014-0.198-0.028-0.291c-0.383-10.485-4.647-20.307-12.034-27.692    c-7.797-7.792-18.16-12.083-29.177-12.083c-8.604,0-16.853,2.614-23.854,7.566c-2.081,1.472-3.853,2.95-5.424,4.524    c-0.568,0.572-1.094,1.167-1.615,1.766l-0.193,0.222c-0.098,0.075-0.195,0.165-0.284,0.257    c-38.434,38.434-38.434,100.974,0,139.412c18.618,18.624,43.377,28.877,69.711,28.877c26.334,0,51.09-10.253,69.71-28.877    c19.023-19.021,29.272-44.31,28.862-71.212c-0.007-0.355-0.079-0.704-0.202-1.04c-0.455-10.369-4.709-20.071-12.039-27.397    c-3.799-3.802-8.33-6.776-13.288-8.843l0.353-0.322c0.698-0.646,1.105-1.55,1.126-2.505c0-0.027-0.014-0.051-0.014-0.079    c0.007,0,0.01,0.007,0.017,0.007c0.068,0,0.13,0,0.195-0.007c0.992-0.055,1.92-0.527,2.543-1.307l19.931-24.883    c0.602-0.749,0.814-1.673,0.718-2.566c1.544,0.534,3.162,0.876,4.847,0.876c3.99,0,7.737-1.571,10.55-4.421    c1.951-1.971,4.568-10.352,7.775-24.903C219.876,12.067,219.523,10.846,218.675,9.997z M158.209,64.057l6.293,6.293    l-58.617,53.933l-1.973,0.362l0.361-1.975l40.753-44.292l0.003-0.003L158.209,64.057z M179.919,87.149    c6.263,6.266,9.821,14.616,10.013,23.518c0.007,0.321,0.072,0.646,0.182,0.958c0.144,24.66-9.359,47.808-26.819,65.264    c-17.296,17.299-40.293,26.823-64.754,26.823c-24.463,0-47.459-9.524-64.753-26.823c-35.551-35.553-35.701-93.302-0.458-129.04    c0.267-0.178,0.512-0.393,0.729-0.643l0.539-0.654c0.417-0.482,0.832-0.961,1.283-1.414c1.283-1.283,2.762-2.512,4.514-3.754    c5.809-4.106,12.657-6.279,19.802-6.279c9.146,0,17.749,3.565,24.222,10.03c6.192,6.19,9.741,14.455,9.995,23.267    c0.003,0.058,0.007,0.109,0.01,0.164c0,0.339-0.024,0.678-0.05,1.023c-0.021,0.346-0.044,0.691-0.056,1.041    c-0.007,0.277,0.022,0.547,0.082,0.811c-0.103,5.862,2.175,11.54,6.341,15.705c4.095,4.093,9.536,6.345,15.321,6.345    c2.204,0,4.356-0.325,6.402-0.955l-24.042,26.131c-0.448,0.486-0.751,1.092-0.866,1.746l-1.447,7.953    c-0.21,1.133,0.154,2.293,0.967,3.104c0.298,0.298,0.655,0.514,1.026,0.685c0.074,0.034,0.141,0.071,0.218,0.099    c0.371,0.141,0.761,0.22,1.16,0.227c0.029,0,0.05,0.014,0.074,0.014c0.21,0,0.417-0.018,0.628-0.055l7.955-1.447    c0.655-0.12,1.257-0.422,1.745-0.87l55.925-51.455C171.145,80.315,175.993,83.224,179.919,87.149z M172.776,61.702l-5.92-5.927    l19.373-15.52l2.07,2.067L172.776,61.702z M206.858,33.213c-2.975,3.011-8.152,3.015-11.129,0c-3.104-3.138-3.104-8.248,0-11.389    c0.797-0.808,3.586-1.913,5.615-2.419l10.188-2.286C209.729,24.64,207.689,31.939,206.858,33.213z" fill="#FFFFFF"/>
	</g>
</g>
<g>
</g>
<g>
</g>
<g>
</g>
<g>
</g>
<g>
</g>
<g>
</g>
<g>
</g>
<g>
</g>
<g>
</g>
<g>
</g>
<g>
</g>
<g>
</g>
<g>
</g>
<g>
</g>
<g>
</g>
</svg>
