<?xml version="1.0" encoding="UTF-8"?>
<svg width="23px" height="23px" viewBox="0 0 23 23" version="1.1" xmlns="http://www.w3.org/2000/svg" xmlns:xlink="http://www.w3.org/1999/xlink">
    <!-- Generator: Sketch 48.2 (47327) - http://www.bohemiancoding.com/sketch -->
    <title>Shape</title>
    <desc>Created with Sketch.</desc>
    <defs></defs>
    <g id="Mobile-Copy" stroke="none" stroke-width="1" fill="none" fill-rule="evenodd" transform="translate(-272.000000, -242.000000)">
        <g id="shopping-cart-(1)-copy" transform="translate(272.000000, 242.000000)" fill="#FFFFFF" fill-rule="nonzero">
            <path d="M6.9,18.4 C5.635,18.4 4.6,19.435 4.6,20.7 C4.6,21.965 5.635,23 6.9,23 C8.165,23 9.2,21.965 9.2,20.7 C9.2,19.435 8.165,18.4 6.9,18.4 Z M0,0 L0,2.3 L2.3,2.3 L6.44,11.04 L4.83,13.8 C4.715,14.145 4.6,14.605 4.6,14.95 C4.6,16.215 5.635,17.25 6.9,17.25 L20.7,17.25 L20.7,14.95 L7.36,14.95 C7.245,14.95 7.13,14.835 7.13,14.72 L7.13,14.6049549 L8.165,12.6499549 L16.675,12.6499549 C17.595,12.6499549 18.285,12.1899549 18.63,11.4999549 L22.77,4.025 C23,3.795 23,3.68 23,3.45 C23,2.76 22.54,2.3 21.85,2.3 L4.83,2.3 L3.795,0 L0,0 Z M18.4,18.4 C17.135,18.4 16.1,19.435 16.1,20.7 C16.1,21.965 17.135,23 18.4,23 C19.665,23 20.7,21.965 20.7,20.7 C20.7,19.435 19.665,18.4 18.4,18.4 Z" id="Shape"></path>
        </g>
    </g>
</svg>